/* XPM */
static char *_700a57b1f8848f2d2fc6bb0a44f7b5fHzM54SdgzneCQs64[] = {
/* columns rows colors chars-per-pixel */
"32 32 83 1 ",
"  c None",
". c #5A3137",
"X c #5A3236",
"o c #5A3237",
"O c #5E3337",
"+ c #6C3A3A",
"@ c #6D3A3A",
"# c #733D3B",
"$ c #6F6932",
"% c #6E7336",
"& c #6E7436",
"* c #6E7637",
"= c #6F7637",
"- c #6E7639",
"; c #6E7739",
": c #6C773F",
"> c #6F7839",
", c #6D7A3D",
"< c #717039",
"1 c #727D39",
"2 c #727D3A",
"3 c #727E3A",
"4 c #737E3A",
"5 c #727E3B",
"6 c #737E3B",
"7 c #737F3B",
"8 c #707B3E",
"9 c #6F7940",
"0 c #836433",
"q c #887644",
"w c #9F6650",
"e c #B96541",
"r c #A06650",
"t c #A46A52",
"y c #D77643",
"u c #D77744",
"i c #D07A4B",
"p c #D97C49",
"a c #D97D49",
"s c #D97D4A",
"d c #D97E4A",
"f c #74803B",
"g c #74803C",
"h c #74813C",
"j c #75823C",
"k c #74823D",
"l c #75823D",
"z c #75833D",
"x c #76833D",
"c c #77853E",
"v c #79873E",
"b c #79883E",
"n c #7C8B40",
"m c #7D8C41",
"M c #7E8D41",
"N c #7F8E41",
"B c #7F8E42",
"V c #808F42",
"C c #DB8451",
"Z c #DB8551",
"A c #DB8552",
"S c #DB8652",
"D c #C98C63",
"F c #D99B6B",
"G c #DB9D6C",
"H c #E4A570",
"J c #A0ACAC",
"K c #C9C0AF",
"L c #C3C1C8",
"P c #C3C2CA",
"I c #C2C3CC",
"U c #D3CCCE",
"Y c #C0CCDC",
"T c #C2CDDC",
"R c #D2D5DD",
"E c #D8D8DD",
"W c #D9D9DD",
"Q c #F2D9CB",
"! c #F2DACD",
"~ c #F3DBCE",
"^ c #F3DCD0",
"/ c #F3DDD1",
"( c #F6E7DF",
/* pixels */
" VVVVVVVVVVVVVVVVVVVVVVVVVVVVVVV",
" VVVVVVVVVVVVVVVVVVVVVVVVVVVVVVV",
" VVVVVVVVVVVVVVVVVVVVVVVVVVVVVVV",
" VVVVVVVVVVVVVVVVVVVVVVVVVVVVVVV",
" VVVVVVVVVVmMMVVVVMVmmVVVVVVVVVV",
" VVVVVVVVM,YYYYW((((((8MVVVVVVVV",
" VVVVVVVVv:YYYTW((((((9vVVVVVVVV",
" VVVVVVVkYYYYR((((((((((kVVVVVVV",
" VVVVVVVkJLLIU~////~!!QKkVVVVVVV",
" VVVVVVVV3uuyysspssssss7VVVVVVVV",
" VVVVVVVV7yyyCHHHHHHHHH7VVVVVVVV",
" VVVVVVVVkyyyCHFDDGHHHHkVVVVVVVV",
" VVVVVVVVkyyyCFr@+wFHHHcVVVVVVVV",
" VVVVVVVVkyyyir#.+#tGHHkVVVVVVVV",
" VVVVVVVVv0yye##..##DHqvVVVVVVVV",
" VVVVVVVVV7yye##O.##DH7VVVVVVVVV",
" VVVVVVVVV3yye##XO##DHgVVVVVVVVV",
" VVVVVVVVV1yyir#XO#tGH3MVVVVVVVV",
" VVVVVVVVV3yyZFr@@tGHHfVVVVVVVVV",
" VVVVVVVVV3yyZHFDDGHHH3VVVVVVVVV",
" VVVVVVVVVV$uCHHHHHHH<MVVVVVVVVV",
" VVVVVVVVVV&uCHHHHHHH>VVVVVVVVVV",
" VVVVVVVVVV;uCHHHHHHH>NVVVVVVVVV",
" VVVVVVVVVV%uCHHHHHHH>VVVVVVVVVV",
" VVVVVVVVVV&uCHHHHHHH;VVVVVVVVVV",
" VVVVVVVVVVVmMMMMMMMMVVVVVVVVVVV",
" VVVVVVVVVVVMVVVVVVVMVVVVVVVVVVV",
" VVVVVVVVVVVVVVVVVVVVVVVVVVVVVVV",
" VVVVVVVVVVVVVVVVVVVVVVVVVVVVVVV",
" VVVVVVVVVVVVVVVVVVVVVVVVVVVVVVV",
" VVVVVVVVVVVVVVVVVVVVVVVVVVVVVVV",
" VVVVVVVVVVVVVVVVVVVVVVVVVVVVVVV"
};
