/* XPM */
static char *_9d808f45af840fcb875c1596fe06eb0ezbnee0h5OZ6GhBP[] = {
/* columns rows colors chars-per-pixel */
"34 32 136 2 ",
"   c None",
".  c #16001D",
"X  c #1B121E",
"o  c #190027",
"O  c #1D1827",
"+  c #221F31",
"@  c #212337",
"#  c #22263B",
"$  c #315D24",
"%  c #356723",
"&  c #1C0042",
"*  c #252B43",
"=  c #2A314B",
"-  c #3B4568",
";  c #61697D",
":  c #4E984A",
">  c #55A84B",
",  c #FDAF39",
"<  c #FBB96D",
"1  c #E9B179",
"2  c #FABC77",
"3  c #465D81",
"4  c #436396",
"5  c #566E99",
"6  c #64718B",
"7  c #6F798D",
"8  c #4B65A3",
"9  c #4C6CA1",
"0  c #476FAD",
"q  c #496FAA",
"w  c #4A70AC",
"e  c #5175AE",
"r  c #5277B3",
"t  c #5479B3",
"y  c #587CB6",
"u  c #457FCE",
"i  c #778197",
"p  c #7F8A9E",
"a  c #7C8495",
"s  c #6183BC",
"d  c #718BBA",
"f  c #0096DC",
"g  c #0099DC",
"h  c #4B82CE",
"j  c #5680C1",
"k  c #5B82C2",
"l  c #5285CF",
"z  c #5F87C8",
"x  c #5586D0",
"c  c #5689D3",
"v  c #5B8BD3",
"b  c #628ACB",
"n  c #628DD2",
"m  c #6591D7",
"M  c #6D93D2",
"N  c #6592DA",
"B  c #7296D3",
"V  c #7799D3",
"C  c #7C9CD3",
"Z  c #65A8DC",
"A  c #808691",
"S  c #808997",
"D  c #838B9C",
"F  c #818EA2",
"G  c #8790A1",
"H  c #8C95A6",
"J  c #8795A9",
"K  c #9399A6",
"L  c #979FAD",
"P  c #999FA9",
"I  c #9DA3AC",
"U  c #9DA4B1",
"Y  c #DCBEA8",
"T  c #F9C084",
"R  c #F8C48F",
"E  c #F8C591",
"W  c #F7C99E",
"Q  c #F7CCA5",
"!  c #F5CFAD",
"~  c #F4D7BD",
"^  c #FADBBE",
"/  c #F5D2B3",
"(  c #859FCE",
")  c #809FD6",
"_  c #84A1D5",
"`  c #8AA5D5",
"'  c #89A7DC",
"]  c #96ADD6",
"[  c #99AFD6",
"{  c #9CB2D7",
"}  c #9AB2D8",
"|  c #B5BBC3",
" . c #B9BEC5",
".. c #A6B9D8",
"X. c #ADBEDB",
"o. c #BCC1C6",
"O. c #BDC2C8",
"+. c #B5C6DC",
"@. c #BBCBDE",
"#. c #BDCBE3",
"$. c #C1C5CA",
"%. c #C4CAD0",
"&. c #C3CEDC",
"*. c #CBD0D5",
"=. c #C6D1DF",
"-. c #CBD3DC",
";. c #D5DADE",
":. c #F9DFC6",
">. c #F2DDCB",
",. c #FAE3CC",
"<. c #F0E1D4",
"1. c #F0E5DB",
"2. c #F6EADE",
"3. c #C4CFE4",
"4. c #C4D1E5",
"5. c #C9D4E0",
"6. c #C2D3EA",
"7. c #D8DCE0",
"8. c #D3DCE3",
"9. c #DEE7EF",
"0. c #EEEBE7",
"q. c #E6EAEC",
"w. c #ECEEED",
"e. c #F5EDE2",
"r. c #FAEFE1",
"t. c #F2EFEB",
"y. c #F2F2EF",
"u. c #E4ECF2",
"i. c #EBEFF0",
"p. c #EDF2F3",
"a. c #EFF6F9",
"s. c #F1F4F5",
"d. c #F3F6F6",
"f. c #F2F4F2",
"g. c #F5FAF9",
"h. c #F9FCFA",
/* pixels */
"- - - - - - - - - - - - - - - - - - - - - - - - - - - - - - - - - - ",
"= @ + + + + + + + + + + + + + + + + + + + + + + + + + @ + + + + @ = ",
"# 5 r r r r r r r r r r r r r r 0 0 r r e e e w e e e e e e e e 5 @ ",
"@ z N z y y y t y y y y y y y r _ ' v N m m m m m m v m v m m N z @ ",
"@ k m d p p D D D D D D D D D a | +.l v n n n n b M _ n _ B n m k @ ",
"@ k c { 5.@.@.@.@.#.@.@.@.@.@.#.#.] x M n n n n c C @.n +.` c n k @ ",
"@ k c [ -.+.g g g g g g g g f g g g Z @.n n n n n n n n n n n n k @ ",
"@ k c [ &.3.9.9.9.9.9.9.9.9.9.u.u.u.p.u.m n n n n n n m n m n n k @ ",
"@ k c [ &.5.f.s.a.s.p.a.f.a.s.| H H K G 4 4 4 4 4 4 4 4 4 5 s m k @ ",
"@ k c [ &.&.i.p./ 1.<.~ t.Q y.p G o.o.| O.o.O.o.o.$. . .o.A e N k @ ",
"@ k c [ &.5.p.p.Q 1.>.! w.E t.F %.w.;.a.-.f.7.q.q.;.d.d.h.I q m k @ ",
"@ k c [ &.5.p.i.e.w.w.0.i.0.s.F %.*.I w.i w.U %.-.K s.p.s.I w N k @ ",
"@ k v [ &.3.i.p.< >.:.T 0., t.F o.a.w.w.w.w.w.p.w.w.w.w.s.I q N k @ ",
"@ k n n n ` s.i.w.i.i.w.i.w.f.J 3 6 6 6 7 7 7 7 7 7 7 7 7 ; y N k @ ",
"@ k m n l ) f.p.E >.>.W 0.2 t.1 Y 8.;.-.k j j j k j j j k s b n k @ ",
"@ k m v h _ d.s.:.e.2.>.f.:.f.,.2.h.h.a.m v m n m m m v m n n m k @ ",
"@ k n ) ` B 4.3.6.3.6.6.3.6.3.6.6.4.5.#.n n n n n n b n n n n n k @ ",
"@ k v [ ..x u h h h h h h h h h h h h h n n n b n n n n v b n m k @ ",
"@ k n n n n B n n n n n n n n n n n n n n n n b n n n n M M n n k @ ",
"@ k x ..X.B @.M v n n b n n n n n n n n v n n n b n n v +.` c n k @ ",
"@ k n M B n V n n n n n n n n n b n n n n n n n n n n n V M v n k @ ",
"@ z N m m m n N m m m n N N n N m m m m m m m m m m m m n N N N z @ ",
"@ 4 9 9 9 9 9 9 9 9 9 9 4 9 9 5 9 9 9 9 9 9 9 9 9 9 9 9 9 9 8 8 4 * ",
"* O X O X X X X X X X X X X O O X X X X X X X X X X X X X . $ % o * ",
"* * * * * * * * * * * * * * * * * * * * * * * * * * * * * & : > & * ",
"* * * * * * * * * * * * * * * * * * * * * * * * * * * * * * * * * * ",
"                        * * * * * * * * * *                         ",
"                        * * * * * * * * * *                         ",
"                        * * * * * * * * * *                         ",
"                        * * * # * * * * * *                         ",
"                        = = = = = = = = = =                         ",
"                        - - - - - - - - - -                         "
};
