/* XPM */
static char *bbdd91f25da844a68422390a8b1a59fflwJeLhujXcufwkC4[] = {
/* columns rows colors chars-per-pixel */
"32 32 72 1 ",
"  c black",
". c #3A0911",
"X c #7E4D2F",
"o c #811426",
"O c #A11B31",
"+ c #824B2D",
"@ c #834C2E",
"# c #854E2F",
"$ c #884F30",
"% c #815030",
"& c #865232",
"* c #8C5232",
"= c #8D5333",
"- c #8E5433",
"; c #8A5534",
": c #8F5534",
"> c #8F5936",
", c #955135",
"< c #915534",
"1 c #915735",
"2 c #975B37",
"3 c #9D5738",
"4 c #9E5939",
"5 c #9C5A3A",
"6 c #9F5D3C",
"7 c #A05B3B",
"8 c #A05C3B",
"9 c #A25E3D",
"0 c #A35E3D",
"q c #A45F3E",
"w c #9F613C",
"e c #A4603E",
"r c #A6613F",
"t c #A66240",
"y c #A76341",
"u c #A76441",
"i c #A86441",
"p c #AA6743",
"a c #AB6944",
"s c #AB6845",
"d c #AC6946",
"f c #AD6B47",
"g c #AE6C48",
"h c #AF6D48",
"j c #AE6E49",
"k c #B06E49",
"l c #AF704A",
"z c #B0714A",
"x c #B1724B",
"c c #B1724C",
"v c #B4734C",
"b c #B3744D",
"n c #B3754E",
"m c #B4754D",
"M c #B4764E",
"N c #B5784F",
"B c #B6784F",
"V c #B67850",
"C c #B77A51",
"Z c #B87A51",
"A c #B87C52",
"S c #B97C53",
"D c #BB7E54",
"F c #BB7F54",
"G c #BC7F55",
"H c #BC8055",
"J c #BD8156",
"K c #BC8357",
"L c #BF8458",
"P c #BF8659",
"I c #C08559",
"U c white",
/* pixels */
"@@@@&&++##$$$=2rw>::-1<1=-:--:-*",
"CCAHFHP>cbzcczmNbbCAFFAHFFH>cbmC",
"gzbbNAA1fppppsffgglzzmmzzcm>sfgg",
"rypssgc;q9444478rrrsppggpps19r9y",
">1>>>>>&;;;.......&&;;;;>>>1>:>>",
"HA>cbbNACC.oOOOOOO.bNNZAHHHHHCKP",
"AC>ffsflz.oOOO....O.gggggbzkllbA",
"lg>rrr9r.oOOO.    .O.rpupuyyppfz",
">>;;;;;;.oOO.      .O.;1:>>>>>>>",
"CCAHPII.ooOO.      .O.PHHP>ccbbC",
"gfggzzz.oooO. U   U.O.bzbC>ffggk",
"uyppsgs.o.oO. U   U.O.ffsb>u9uuu",
">;;&@X;.o.oO.      .o.>1>>>>>>>>",
"AAKAH;gf..ooO.     .o.ZAZPNCZCCF",
"lcblA;r6up.ooo.   .o.ppfggggffgc",
"psgfg;958r9..oo...o.9r9rupuuupss",
">>>;;&11>>.oooOOOOOo.>>:>>:>>>>>",
"CCCCAAHAA.oOOOOOOOOOo.HPPPP>ACAN",
"glggglbbC.oOOOOOOOOOo.mzlbF>kggg",
"9e9uuupff.OOOOOOOOOOO.gfffp1r88p",
">>;;-;;;.oOOOOOOOOOOO.;;;;;>>1>>",
"H>llllCZ.oOOOOOOoOOOOo.AAAKHHHHA",
"C>puypsg.oOOOOOOoOOOOo.ssgggglzm",
"f>4344rr.oOOOOOo.oOOoo.76eeereus",
"1>>;;;;.oooOoOoo.ooOoo.&&&=&&&&;",
"bCAHA>l.ooooOoo. .oooo.>gvmNAZmZ",
"ggllz>u.o.oooo.  .oo.o.>ppppffgz",
"eyuuu>54..o.oo.   .oo.g>r99rrprp",
";;;;;;;;;..;...%% ...;;;;;;;;;1>",
"CZ1zlczcmmAZ  GHH; ZbCCmAbCbmbCH",
"ll>urpsupfsff fgc> pupssssgpsgsl",
"su<7777478888 rpp& ,,564996999rp"
};
