/* XPM */
static char *d027a7b81d694c3fc51f9f3627075d76SGSorqPwJJ41kXap[] = {
/* columns rows colors chars-per-pixel */
"30 32 115 2 ",
"   c #14311A",
".  c #243B1E",
"X  c #353F21",
"o  c #623832",
"O  c #2B4321",
"+  c #364322",
"@  c #3A4423",
"#  c #444224",
"$  c #434D29",
"%  c #4D4D2C",
"&  c #58412E",
"*  c #584D2C",
"=  c #4A562B",
"-  c #4E5A2D",
";  c #515E2E",
":  c #464E30",
">  c #4F5838",
",  c #535D31",
"<  c #6B4633",
"1  c #644D33",
"2  c #675235",
"3  c #7D5536",
"4  c #765C36",
"5  c #7D5D39",
"6  c #56632D",
"7  c #566331",
"8  c #5A6533",
"9  c #5D6934",
"0  c #57603F",
"q  c #59643C",
"w  c #626E36",
"e  c #746C36",
"r  c #657336",
"t  c #6B7732",
"y  c #6C7B34",
"u  c #657038",
"i  c #69763A",
"p  c #6C7B3B",
"a  c #707D37",
"s  c #707E3C",
"d  c #656F46",
"f  c #656E4B",
"g  c #677242",
"h  c #697343",
"j  c #6D7A46",
"k  c #6A7448",
"l  c #6F7A4D",
"z  c #717E44",
"x  c #6F7A55",
"c  c #814F38",
"v  c #82533A",
"b  c #845C3A",
"n  c #8D5B3D",
"m  c #925C3E",
"M  c #836339",
"N  c #9A6442",
"B  c #A26644",
"V  c #A66C49",
"C  c #A77047",
"Z  c #A8704B",
"A  c #AC784C",
"S  c #75823E",
"D  c #78863E",
"F  c #7B893E",
"G  c #758343",
"H  c #788647",
"J  c #7D8C42",
"K  c #73814A",
"L  c #798549",
"P  c #7E8B4B",
"I  c #7A8550",
"U  c #7F895A",
"Y  c #828F3E",
"T  c #8B9634",
"R  c #8C9A36",
"E  c #859238",
"W  c #88973F",
"Q  c #8D9B3E",
"!  c #979137",
"~  c #919E3D",
"^  c #9DAA37",
"/  c #95A23B",
"(  c #98A53A",
")  c #9CA93A",
"_  c #B3BE2E",
"`  c #A2AF35",
"'  c #A1AE38",
"]  c #A5B135",
"[  c #ABB633",
"{  c #AEB931",
"}  c #B1BC30",
"|  c #BBC529",
" . c #CFD71C",
".. c #D6DD17",
"X. c #D8DF15",
"o. c #D3DA19",
"O. c #DCE311",
"+. c #C4CD24",
"@. c #C8D020",
"#. c #808F42",
"$. c #808E4A",
"%. c #978042",
"&. c #839243",
"*. c #899741",
"=. c #83914C",
"-. c #8A9749",
";. c #919D42",
":. c #818D56",
">. c #879454",
",. c #899655",
"<. c #869158",
"1. c #8A965C",
"2. c #8B9563",
"3. c #8E9965",
"4. c #8F9869",
/* pixels */
"#.#.#.#.#.#.#.#.#.#.J J i a W W E i z #.#.#.#.#.#.#.#.#.#.#.",
"#.#.#.#.#.#.#.#.#.$.S T ) } +.+.+.' ( E :.&.#.#.#.#.#.#.#.#.",
"#.#.#.#.#.#.#.#.I H ' } +.o...X...o.| [ ;.z >.#.#.#.#.#.#.#.",
"#.#.#.#.#.#.#.:.;.` { _ O...........X.[ { ) #.>.#.#.#.#.#.#.",
"#.#.#.#.#.#.:.~ } } { { @.X.........| { { _ { $.$.#.J Y #.#.",
"#.#.#.#.#.=.#.} { { { { } +.o.X. .| [ { { { } ` z #.#.#.#.#.",
"#.#.#.#.J H ' } { { { { { { _ +.} { { { { { { { ~ L #.#.#.#.",
"#.#.#.#.$.D [ { { { { { { { { { } { { { { { { { ) g #.#.#.#.",
"#.#.#.&.a ] } { { { { { { { { { { { { { { { { { } / l &.J J ",
"#.#.$.S ' _ { { { { { { { { { { { { { { { { { { { _ ( L J &.",
"#.$.K ] } { { { { { { { { { { { { { { { { { { { { { } / <.&.",
"#.P -.} { { { { { { { { { { { { { { { { { { { { { { { ` 3.&.",
"$.4.' { { { { { { { { { { { { { { { { { { { { { { { { { *.1.",
"1.E [ { { { { { { { { { { { { { { { { { { { { { { { { { ] H ",
"S ' { { { { { { { { { { { { { { { { { { { { { { { { { { [ / ",
"4.R { { { { { { { { { { { { { { { { { { { { { { { { { { [ D ",
"F [ } { { { { { { { { { { { { { { { { { { { { { { { { { _ ) ",
"P ( [ [ { { { { { { { { { { { { { { { { { { { { { { { [ [ *.",
"3.E Q [ } { { { { { { { { { { { { { { { { { { { { { _ ^ / s ",
"1.F J { / } } [ { { { { { { { { { { { { { { { { { { ( ) P S ",
"J 1.J &.Q } { } { { { { { { { { { { { { { { { { [ [ J W F q ",
"J x F S J Q W [ } { { { { { { { { { { { { { { ^ Q W J H t 2.",
"J I q 9 J J J *.] ^ { { { { { _ { { { } [ ^ ^ J J J F 6 l =.",
"&.J U 7 S S J J J / W [ ^ ^ [ ] { Q { ( ~ W F &.J r S f =.J ",
"J &.&.: 6 8 8 F #.G #.#.~ &.Q H ~ #./ J J S &.p r - , l J F ",
"&.J J ,.f 0 6 7 w r #.w #.D p &.i #.G p J 9 r , 6 0 h &.J &.",
"F J &.&.=.1.> $ 7 ; p 7 9 9 7 S - i = w w = 9 + d =.J &.J &.",
"&.&.F &.J =.q @ @ $ @ O 7 ; . X @ 7 - O @ $ X = k J &.J W &.",
"F &.&.J J u 7 7 6 7 & A   * C v 3 # # Z % q , 7 6 j &.J J &.",
"&.&.F &.J 8 7 7 7 $ V n v c c M N N n N 3 ; 7 7 7 w J J J J ",
"&.J F &.J h 6 7 , n m m M 4 o ! e < b m N 2 7 7 6 I W J F &.",
"F &.&.J &.>.U 9 1 B b 4 y t ; i 9 7 8 5 M %.t k 1.P J &.&.J "
};
